<?xml version="1.0" encoding="UTF-8"?>
<svg width="800" height="600" viewBox="0 0 800 600" xmlns="http://www.w3.org/2000/svg">
    <!-- Background Elements -->
    <defs>
        <linearGradient id="bgGradient" x1="0%" y1="0%" x2="100%" y2="100%">
            <stop offset="0%" style="stop-color:#f8f9fa;stop-opacity:0.15"/>
            <stop offset="100%" style="stop-color:#e9ecef;stop-opacity:0.15"/>
        </linearGradient>
        <filter id="shadow" x="-20%" y="-20%" width="140%" height="140%">
            <feDropShadow dx="0" dy="4" stdDeviation="8" flood-opacity="0.2"/>
        </filter>
    </defs>

    <!-- Background -->
    <rect width="100%" height="100%" fill="url(#bgGradient)"/>

    <!-- Decorative Background Elements -->
    <g opacity="0.1">
        <circle cx="100" cy="100" r="40" fill="#4a90e2"/>
        <circle cx="700" cy="500" r="60" fill="#50c878"/>
        <circle cx="400" cy="200" r="30" fill="#ff6b6b"/>
        <circle cx="600" cy="300" r="25" fill="#feca57"/>
        <circle cx="200" cy="400" r="35" fill="#5f27cd"/>
    </g>

    <!-- Main Tool Icons -->
    <g filter="url(#shadow)">
        <!-- Calculator Icon -->
        <g transform="translate(150, 200)">
            <rect x="0" y="0" width="80" height="100" rx="10" fill="#4a90e2" opacity="0.9"/>
            <rect x="10" y="10" width="60" height="40" rx="5" fill="#ffffff" opacity="0.9"/>
            <rect x="10" y="60" width="25" height="25" rx="5" fill="#ffffff" opacity="0.9"/>
            <rect x="45" y="60" width="25" height="25" rx="5" fill="#ffffff" opacity="0.9"/>
            <rect x="10" y="95" width="25" height="25" rx="5" fill="#ffffff" opacity="0.9"/>
            <rect x="45" y="95" width="25" height="25" rx="5" fill="#ffffff" opacity="0.9"/>
        </g>

        <!-- Image Tool Icon -->
        <g transform="translate(300, 150)">
            <rect x="0" y="0" width="100" height="80" rx="10" fill="#50c878" opacity="0.9"/>
            <circle cx="30" cy="30" r="15" fill="#ffffff" opacity="0.9"/>
            <path d="M0 60 L100 60 L80 40 L50 70 L30 50 L0 60" fill="#ffffff" opacity="0.9"/>
        </g>

        <!-- Text Tool Icon -->
        <g transform="translate(450, 250)">
            <rect x="0" y="0" width="120" height="80" rx="10" fill="#ff6b6b" opacity="0.9"/>
            <rect x="20" y="20" width="80" height="10" rx="5" fill="#ffffff" opacity="0.9"/>
            <rect x="20" y="40" width="60" height="10" rx="5" fill="#ffffff" opacity="0.9"/>
            <rect x="20" y="60" width="40" height="10" rx="5" fill="#ffffff" opacity="0.9"/>
        </g>

        <!-- Security Tool Icon -->
        <g transform="translate(600, 150)">
            <rect x="0" y="0" width="80" height="100" rx="10" fill="#5f27cd" opacity="0.9"/>
            <path d="M40 20 L40 50 L60 50 L40 70 L20 50 L40 50" fill="#ffffff" opacity="0.9"/>
            <rect x="20" y="80" width="40" height="10" rx="5" fill="#ffffff" opacity="0.9"/>
        </g>

        <!-- Converter Icon -->
        <g transform="translate(150, 400)">
            <rect x="0" y="0" width="100" height="80" rx="10" fill="#feca57" opacity="0.9"/>
            <path d="M20 20 L80 20 L80 60 L20 60 Z" fill="none" stroke="#ffffff" stroke-width="4" opacity="0.9"/>
            <path d="M40 30 L60 30 M40 40 L60 40 M40 50 L60 50" stroke="#ffffff" stroke-width="4" opacity="0.9"/>
        </g>

        <!-- Mobile App Icon -->
        <g transform="translate(300, 350)">
            <rect x="0" y="0" width="60" height="100" rx="10" fill="#ff6b6b" opacity="0.9"/>
            <circle cx="30" cy="20" r="5" fill="#ffffff" opacity="0.9"/>
            <rect x="10" y="40" width="40" height="50" rx="5" fill="#ffffff" opacity="0.9"/>
        </g>

        <!-- Cloud Icon -->
        <g transform="translate(450, 400)">
            <path d="M60 40 C80 40 90 60 80 80 C100 80 110 60 100 40 C120 40 130 60 120 80 L40 80 C30 60 40 40 60 40" fill="#4a90e2" opacity="0.9"/>
        </g>

        <!-- Analytics Icon -->
        <g transform="translate(600, 350)">
            <rect x="0" y="0" width="100" height="80" rx="10" fill="#50c878" opacity="0.9"/>
            <path d="M20 60 L40 40 L60 50 L80 20" fill="none" stroke="#ffffff" stroke-width="4" opacity="0.9"/>
            <circle cx="40" cy="40" r="3" fill="#ffffff" opacity="0.9"/>
            <circle cx="60" cy="50" r="3" fill="#ffffff" opacity="0.9"/>
            <circle cx="80" cy="20" r="3" fill="#ffffff" opacity="0.9"/>
        </g>
    </g>

    <!-- Connection Lines -->
    <g stroke="#4a90e2" stroke-width="2" stroke-dasharray="5,5" opacity="0.3">
        <path d="M230 250 L300 190"/>
        <path d="M400 290 L450 250"/>
        <path d="M570 200 L600 190"/>
        <path d="M250 440 L300 400"/>
        <path d="M360 450 L450 440"/>
        <path d="M510 480 L600 430"/>
    </g>

    <!-- Floating Particles -->
    <g>
        <circle cx="100" cy="100" r="2" fill="#4a90e2" opacity="0.6">
            <animate attributeName="cy" values="100;80;100" dur="3s" repeatCount="indefinite"/>
        </circle>
        <circle cx="700" cy="500" r="2" fill="#50c878" opacity="0.6">
            <animate attributeName="cy" values="500;480;500" dur="4s" repeatCount="indefinite"/>
        </circle>
        <circle cx="400" cy="200" r="2" fill="#ff6b6b" opacity="0.6">
            <animate attributeName="cy" values="200;180;200" dur="3.5s" repeatCount="indefinite"/>
        </circle>
    </g>
</svg> 